<?xml version="1.0" encoding="UTF-8" standalone="no"?>
<svg
   xmlns:dc="http://purl.org/dc/elements/1.1/"
   xmlns:cc="http://creativecommons.org/ns#"
   xmlns:rdf="http://www.w3.org/1999/02/22-rdf-syntax-ns#"
   xmlns:svg="http://www.w3.org/2000/svg"
   xmlns="http://www.w3.org/2000/svg"
   xmlns:sodipodi="http://sodipodi.sourceforge.net/DTD/sodipodi-0.dtd"
   xmlns:inkscape="http://www.inkscape.org/namespaces/inkscape"
   width="16.395914mm"
   height="16.980158mm"
   viewBox="0 0 16.395914 16.980158"
   version="1.1"
   id="svg8"
   inkscape:version="1.0.1 (3bc2e813f5, 2020-09-07)"
   sodipodi:docname="Blast-Logo.svg">
  <defs
     id="defs2">
    <inkscape:path-effect
       effect="bspline"
       id="path-effect921"
       is_visible="true"
       lpeversion="1"
       weight="33.333333"
       steps="2"
       helper_size="0"
       apply_no_weight="true"
       apply_with_weight="true"
       only_selected="false" />
    <inkscape:path-effect
       effect="bspline"
       id="path-effect915"
       is_visible="true"
       lpeversion="1"
       weight="33.333333"
       steps="2"
       helper_size="0"
       apply_no_weight="true"
       apply_with_weight="true"
       only_selected="false" />
    <inkscape:path-effect
       effect="skeletal"
       id="path-effect917"
       is_visible="true"
       lpeversion="1"
       pattern="M 0,5 C 0,2.24 2.24,0 5,0 7.76,0 10,2.24 10,5 10,7.76 7.76,10 5,10 2.24,10 0,7.76 0,5 Z"
       copytype="single_stretched"
       prop_scale="1"
       scale_y_rel="false"
       spacing="0"
       normal_offset="0"
       tang_offset="0"
       prop_units="false"
       vertical_pattern="false"
       hide_knot="false"
       fuse_tolerance="0" />
    <inkscape:path-effect
       effect="skeletal"
       id="path-effect911"
       is_visible="true"
       lpeversion="1"
       pattern="M 0,5 C 0,2.24 2.24,0 5,0 7.76,0 10,2.24 10,5 10,7.76 7.76,10 5,10 2.24,10 0,7.76 0,5 Z"
       copytype="single_stretched"
       prop_scale="1"
       scale_y_rel="false"
       spacing="0"
       normal_offset="0"
       tang_offset="0"
       prop_units="false"
       vertical_pattern="false"
       hide_knot="false"
       fuse_tolerance="0" />
  </defs>
  <sodipodi:namedview
     id="base"
     pagecolor="#ffffff"
     bordercolor="#666666"
     borderopacity="1.0"
     inkscape:pageopacity="0.0"
     inkscape:pageshadow="2"
     inkscape:zoom="2.8583972"
     inkscape:cx="36.180611"
     inkscape:cy="54.956694"
     inkscape:document-units="mm"
     inkscape:current-layer="layer1"
     inkscape:document-rotation="0"
     showgrid="false"
     fit-margin-top="0"
     fit-margin-left="0"
     fit-margin-right="0"
     fit-margin-bottom="0"
     inkscape:window-width="1920"
     inkscape:window-height="1017"
     inkscape:window-x="1912"
     inkscape:window-y="-8"
     inkscape:window-maximized="1" />
  <metadata
     id="metadata5">
    <rdf:RDF>
      <cc:Work
         rdf:about="">
        <dc:format>image/svg+xml</dc:format>
        <dc:type
           rdf:resource="http://purl.org/dc/dcmitype/StillImage" />
        <dc:title></dc:title>
        <dc:title />
      </cc:Work>
    </rdf:RDF>
  </metadata>
  <g
     inkscape:label="Layer 1"
     inkscape:groupmode="layer"
     id="layer1"
     transform="translate(-95.977713,-103.35126)">
    <path
       style="fill:none;stroke:none;stroke-width:0.264583px;stroke-linecap:butt;stroke-linejoin:miter;stroke-opacity:1"
       d="m 97.940813,120.81272 c -0.187315,-0.26858 -0.374416,-0.53685 -0.534929,-0.78977 -0.160514,-0.25292 -0.29418,-0.49017 -0.42102,-0.73071 -0.126841,-0.24054 -0.246825,-0.48435 -0.349608,-0.69086 -0.102782,-0.20652 -0.188352,-0.37571 -0.265536,-0.54108 -0.07719,-0.16536 -0.145946,-0.32688 -0.220243,-0.54353 -0.0743,-0.21665 -0.154082,-0.48841 -0.214738,-0.74749 -0.06066,-0.25908 -0.102136,-0.50545 -0.133913,-0.75543 -0.03178,-0.24998 -0.05383,-0.50354 -0.06487,-0.79569 -0.01104,-0.29216 -0.01104,-0.62289 -0.0055,-0.91504 0.0055,-0.29215 0.01653,-0.5457 0.04959,-0.82133 0.03306,-0.27564 0.08818,-0.57329 0.165344,-0.84893 0.07716,-0.27565 0.176381,-0.5292 0.308675,-0.8379 0.132293,-0.30869 0.297652,-0.67249 0.457518,-0.95365 0.159866,-0.28116 0.314207,-0.4796 0.479575,-0.68906 0.165368,-0.20947 0.341752,-0.42995 0.556741,-0.66699 0.214988,-0.23704 0.468541,-0.4906 0.672505,-0.68354 0.203964,-0.19293 0.358297,-0.32522 0.573277,-0.50712 0.21498,-0.18191 0.490583,-0.41341 0.727625,-0.59532 0.237042,-0.18192 0.435474,-0.3142 0.609234,-0.42713 0.17376,-0.11294 0.32275,-0.20645 0.47182,-0.30001 0,0 -0.19293,0.55542 -0.19293,0.55542 -0.0526,0.13057 -0.10529,0.26128 -0.17643,0.42791 -0.0711,0.16662 -0.16078,0.36929 -0.23093,0.52812 -0.0702,0.15884 -0.12083,0.27381 -0.1676,0.38295 -0.04677,0.10915 -0.08964,0.21243 -0.126672,0.31281 -0.03703,0.10038 -0.06821,0.19782 -0.09939,0.31477 -0.03118,0.11695 -0.06236,0.25336 -0.08769,0.3859 -0.02533,0.13254 -0.04482,0.26115 -0.05845,0.38589 -0.01363,0.12474 -0.02143,0.24557 -0.02727,0.36641 -0.0058,0.12083 -0.0097,0.24165 -0.0097,0.36054 9e-6,0.11889 0.0039,0.23582 0.0078,0.34691 0.0039,0.11108 0.0078,0.21632 0.0166,0.29427 0.0088,0.078 0.02246,0.12867 0.04003,0.17542 0.01757,0.0468 0.03902,0.0897 0.08975,0.14712 0.05074,0.0575 0.130631,0.12957 0.226142,0.17625 0.0955,0.0467 0.20657,0.0681 0.32154,0.0759 0.11497,0.008 0.23382,0.002 0.33711,-0.0118 0.10329,-0.0137 0.19093,-0.0351 0.29322,-0.078 0.10228,-0.0429 0.21918,-0.10719 0.32242,-0.18121 0.10323,-0.074 0.1929,-0.15785 0.27085,-0.22898 0.0779,-0.0711 0.14423,-0.12961 0.22706,-0.21049 0.0828,-0.0809 0.18218,-0.18414 0.27474,-0.28644 0.0926,-0.1023 0.17832,-0.20365 0.24944,-0.28841 0.0711,-0.0848 0.12766,-0.15299 0.191,-0.23192 0.0633,-0.0789 0.13349,-0.16857 0.1978,-0.25431 0.0643,-0.0857 0.12277,-0.16759 0.20462,-0.28355 0.0819,-0.11595 0.18708,-0.266 0.25917,-0.3751 0.0721,-0.10909 0.11109,-0.17735 0.14813,-0.24459 0.037,-0.0673 0.0721,-0.13347 0.10134,-0.18805 0.0292,-0.0546 0.0526,-0.0975 0.0877,-0.16567 0.0351,-0.0682 0.0819,-0.16172 0.13154,-0.26598 0.0497,-0.10426 0.10232,-0.21925 0.14909,-0.33227 0.0468,-0.11302 0.0877,-0.22409 0.11792,-0.34001 0.0302,-0.11592 0.0497,-0.23675 0.0822,-0.43749 0.0325,-0.20073 0.078,-0.48137 0.12281,-0.73812 0.0448,-0.25675 0.0891,-0.48958 0.10606,-0.73578 0.017,-0.24621 0.007,-0.50585 -0.0128,-0.73477 -0.0195,-0.22892 -0.0483,-0.42712 -0.0797,-0.59997 -0.0314,-0.17285 -0.0654,-0.32037 -0.11309,-0.49364 -0.0477,-0.17327 -0.10901,-0.3723 -0.18201,-0.53794 -0.073,-0.16564 -0.15771,-0.2978 -0.23974,-0.40869 -0.082,-0.11089 -0.16133,-0.20033 -0.24025,-0.30369 -0.0789,-0.10336 -0.15757,-0.2209 -0.23602,-0.33814 0.25723,0.0296 0.51475,0.0593 0.75184,0.13582 0.23708,0.0765 0.45397,0.19976 0.6672,0.33156 0.21324,0.1318 0.42281,0.27212 0.66148,0.47197 0.23866,0.19985 0.50643,0.45915 0.72764,0.70729 0.22121,0.24814 0.3959,0.48506 0.54312,0.71582 0.14721,0.23076 0.26701,0.45534 0.36534,0.65748 0.0983,0.20215 0.17522,0.38179 0.23228,0.55668 0.0571,0.1749 0.0943,0.34494 0.12202,0.52436 0.0277,0.17942 0.0458,0.36819 0.0464,0.63046 6.3e-4,0.26227 -0.0162,0.59809 -0.0372,0.88265 -0.021,0.28456 -0.0463,0.51784 -0.0866,0.81716 -0.0404,0.29931 -0.0959,0.66461 -0.13219,0.9353 -0.0363,0.27069 -0.0534,0.44672 -0.0728,0.61746 -0.0194,0.17075 -0.041,0.33621 -0.059,0.49428 -0.0181,0.15807 -0.0325,0.30872 -0.0449,0.47586 -0.0124,0.16714 -0.0228,0.35073 -0.0266,0.54469 -0.004,0.19396 -10e-4,0.39824 0.004,0.55667 0.005,0.15843 0.0121,0.27106 0.021,0.41395 0.009,0.1429 0.0197,0.31606 0.0636,0.4745 0.0439,0.15843 0.12096,0.30205 0.18428,0.39821 0.0633,0.0961 0.11283,0.14485 0.1896,0.20156 0.0768,0.0567 0.18074,0.12149 0.28618,0.18266 0.10544,0.0612 0.21209,0.11858 0.33875,0.15612 0.12666,0.0375 0.27329,0.0553 0.42606,0.0545 0.15277,-7.4e-4 0.31177,-0.0199 0.42677,-0.0342 0.115,-0.0143 0.18607,-0.0237 0.26774,-0.05 0.0817,-0.0262 0.17416,-0.0694 0.27585,-0.14118 0.1017,-0.0718 0.21263,-0.17231 0.3058,-0.26176 0.0932,-0.0895 0.1686,-0.16791 0.23153,-0.25958 0.0629,-0.0917 0.1134,-0.19667 0.15196,-0.31718 0.0386,-0.12051 0.0652,-0.25663 0.0748,-0.49973 0.01,-0.2431 0.002,-0.59323 -0.0211,-0.8497 -0.0233,-0.25647 -0.0624,-0.41929 -0.10706,-0.62152 -0.0447,-0.20224 -0.0949,-0.44386 -0.1581,-0.72246 -0.0632,-0.27861 -0.13941,-0.59416 -0.24035,-0.88421 -0.10095,-0.29006 -0.2267,-0.5546 -0.31773,-0.75264 -0.091,-0.19804 -0.14747,-0.32993 -0.20377,-0.4615 0.17241,0.10709 0.34512,0.21436 0.49869,0.32964 0.15356,0.11528 0.28831,0.23868 0.40914,0.36353 0.12082,0.12485 0.22775,0.2511 0.34163,0.37934 0.11387,0.12824 0.23468,0.25847 0.36066,0.40362 0.12598,0.14514 0.25715,0.3052 0.37532,0.45557 0.11818,0.15038 0.22336,0.29107 0.33076,0.43411 0.1074,0.14303 0.21699,0.28837 0.33096,0.46656 0.11397,0.17818 0.23234,0.38914 0.33922,0.59885 0.10687,0.2097 0.20225,0.41807 0.28379,0.62682 0.0815,0.20875 0.14926,0.41781 0.20699,0.65185 0.0577,0.23403 0.10549,0.493 0.13343,0.74195 0.028,0.24895 0.0361,0.48789 0.0278,0.76694 -0.008,0.27906 -0.033,0.59824 -0.0692,0.83689 -0.0362,0.23865 -0.0837,0.39683 -0.13358,0.55376 -0.0498,0.15693 -0.10193,0.31259 -0.1722,0.49517 -0.0703,0.18257 -0.15869,0.39201 -0.26213,0.59815 -0.10344,0.20614 -0.22188,0.40898 -0.33929,0.59684 -0.11742,0.18786 -0.2338,0.36074 -0.34465,0.51192 -0.11085,0.15117 -0.21619,0.28066 -0.33708,0.42907 -0.12088,0.14841 -0.25727,0.31572 -0.40854,0.49016 -0.15127,0.17445 -0.31738,0.356 -0.46513,0.50799 -0.14775,0.152 -0.27713,0.27444 -0.41428,0.39933 -0.13715,0.12489 -0.28208,0.25226 -0.427,0.37961 0.006,-0.25047 0.0118,-0.50067 0.005,-0.74388 -0.007,-0.24322 -0.0278,-0.47915 -0.06,-0.66479 -0.0322,-0.18565 -0.0763,-0.32093 -0.12823,-0.46734 -0.052,-0.14641 -0.11179,-0.30382 -0.17489,-0.45137 -0.0631,-0.14755 -0.1295,-0.28522 -0.1922,-0.4038 -0.0627,-0.11858 -0.12176,-0.2181 -0.1825,-0.32299 -0.0607,-0.10488 -0.12313,-0.21509 -0.1935,-0.32744 -0.0704,-0.11235 -0.14869,-0.22677 -0.21525,-0.3277 -0.0666,-0.10092 -0.12126,-0.18825 -0.18204,-0.28444 -0.0608,-0.0962 -0.12757,-0.20113 -0.20168,-0.29893 -0.0741,-0.0978 -0.15548,-0.18827 -0.23639,-0.27674 -0.0809,-0.0885 -0.16131,-0.1749 -0.25354,-0.26391 -0.0922,-0.089 -0.1963,-0.18057 -0.32305,-0.29095 -0.12674,-0.11037 -0.27614,-0.23955 -0.42129,-0.36221 -0.14515,-0.12267 -0.28602,-0.2388 -0.39558,-0.31998 -0.10956,-0.0812 -0.18783,-0.12734 -0.26133,-0.17444 -0.0735,-0.0471 -0.14216,-0.0951 -0.22033,-0.14369 -0.0782,-0.0486 -0.16576,-0.0976 -0.26555,-0.1507 -0.0998,-0.0531 -0.21199,-0.1105 -0.32391,-0.16771 0.0684,0.21142 0.13687,0.42315 0.19798,0.60208 0.0611,0.17893 0.11494,0.32535 0.16336,0.47064 0.0484,0.14529 0.0915,0.28944 0.14034,0.44207 0.0489,0.15263 0.10357,0.31364 0.15145,0.44981 0.0479,0.13616 0.0889,0.2474 0.12443,0.38014 0.0355,0.13274 0.0656,0.28692 0.0904,0.4387 0.0248,0.15179 0.0443,0.30118 0.0573,0.44224 0.013,0.14107 0.0195,0.27377 0.0163,0.40413 -0.003,0.13036 -0.0158,0.25836 -0.0405,0.39668 -0.0247,0.13833 -0.0613,0.28698 -0.13196,0.40933 -0.0707,0.12235 -0.17536,0.21856 -0.28484,0.29951 -0.10948,0.0809 -0.22373,0.14662 -0.35168,0.18485 -0.12795,0.0382 -0.26968,0.049 -0.39261,0.0229 -0.12294,-0.0261 -0.22705,-0.0891 -0.31048,-0.17748 -0.0834,-0.0884 -0.14605,-0.20222 -0.22147,-0.32997 -0.0754,-0.12776 -0.16362,-0.26936 -0.23725,-0.40919 -0.0736,-0.13983 -0.13256,-0.27779 -0.19672,-0.42953 -0.0642,-0.15175 -0.13357,-0.31732 -0.18529,-0.46827 -0.0517,-0.15096 -0.0857,-0.28733 -0.11458,-0.45511 -0.0289,-0.16778 -0.0525,-0.36693 -0.0693,-0.51423 -0.0168,-0.14729 -0.0266,-0.24255 -0.0483,-0.40242 -0.0217,-0.15988 -0.0552,-0.38428 -0.0798,-0.64091 -0.0246,-0.25663 -0.0403,-0.54544 -0.0385,-0.81933 0.002,-0.27388 0.0211,-0.5328 0.0527,-0.75343 0.0316,-0.22063 0.0753,-0.40294 0.12709,-0.56953 0.0517,-0.1666 0.11147,-0.31742 0.18086,-0.4606 0.0694,-0.14319 0.14843,-0.2787 0.22747,-0.41421 0.079,-0.13551 0.1581,-0.27102 0.24907,-0.40968 0.091,-0.13867 0.19385,-0.28045 0.2836,-0.40054 0.0897,-0.1201 0.16638,-0.21854 0.26892,-0.34606 0.10254,-0.12753 0.231,-0.28417 0.35945,-0.44078 -0.1801,0.001 -0.35993,0.003 -0.52708,0.035 -0.16715,0.0324 -0.32124,0.0959 -0.47817,0.17135 -0.15694,0.0755 -0.31669,0.16292 -0.457,0.25465 -0.14031,0.0917 -0.2611,0.18772 -0.36773,0.26827 -0.10662,0.0806 -0.19909,0.14567 -0.30637,0.23613 -0.10728,0.0905 -0.22932,0.20622 -0.34754,0.31947 -0.11822,0.11324 -0.23259,0.22394 -0.33504,0.34144 -0.10246,0.1175 -0.19293,0.24173 -0.26371,0.3587 -0.0708,0.11696 -0.1218,0.22651 -0.18095,0.36294 -0.0592,0.13643 -0.12645,0.2997 -0.1776,0.46271 -0.0512,0.16301 -0.0862,0.32563 -0.12019,0.49157 -0.034,0.16594 -0.0671,0.33512 -0.0828,0.50517 -0.0157,0.17005 -0.014,0.34086 -0.0108,0.53201 0.003,0.19116 0.008,0.40268 0.018,0.57953 0.01,0.17686 0.0247,0.31905 0.0424,0.47335 0.0177,0.1543 0.0381,0.3207 0.07,0.50379 0.0319,0.1831 0.0752,0.38287 0.11419,0.58011 0.039,0.19724 0.0739,0.3919 0.11308,0.581 0.0392,0.18909 0.0828,0.3726 0.0996,0.59554 0.0168,0.22293 0.007,0.48529 -0.0386,0.69539 -0.0456,0.21011 -0.12691,0.36813 -0.20772,0.48473 -0.0808,0.1166 -0.16113,0.1919 -0.28191,0.23136 -0.12078,0.0395 -0.28218,0.0431 -0.43558,0.0156 -0.15339,-0.0274 -0.29882,-0.086 -0.41671,-0.14165 -0.11788,-0.0556 -0.20822,-0.10831 -0.30005,-0.181 -0.0918,-0.0727 -0.185012,-0.16537 -0.275686,-0.2607 -0.09067,-0.0953 -0.178797,-0.19332 -0.251294,-0.30958 -0.0725,-0.11625 -0.129258,-0.2508 -0.176006,-0.38695 -0.04675,-0.13615 -0.08343,-0.27388 -0.110709,-0.43472 -0.02728,-0.16085 -0.0451,-0.34479 -0.05497,-0.51299 -0.0099,-0.16821 -0.01177,-0.32065 -0.0019,-0.46221 0.0099,-0.14156 0.03159,-0.27217 0.04842,-0.36657 0.01683,-0.0944 0.02881,-0.15264 0.04619,-0.22226 0.01738,-0.0696 0.04015,-0.15051 0.07206,-0.24864 0.0319,-0.0981 0.07298,-0.21359 0.114012,-0.3289 -0.119056,0.0527 -0.237978,0.10539 -0.334195,0.1613 -0.09622,0.0559 -0.169519,0.11499 -0.228605,0.16836 -0.05909,0.0534 -0.103828,0.10089 -0.156337,0.1632 -0.05251,0.0623 -0.112508,0.13908 -0.160195,0.21098 -0.04769,0.0719 -0.08291,0.13868 -0.120874,0.21241 -0.03796,0.0737 -0.0786,0.15428 -0.120587,0.25768 -0.04199,0.10341 -0.08528,0.22951 -0.11977,0.34054 -0.03449,0.11103 -0.06023,0.20707 -0.08167,0.3096 -0.02145,0.10252 -0.03863,0.21155 -0.05155,0.32713 -0.01292,0.11557 -0.02157,0.23765 -0.03023,0.35973 -0.0087,0.12209 -0.01732,0.24417 -0.02358,0.33233 -0.0063,0.0882 -0.01011,0.14245 -0.01562,0.23022 -0.0055,0.0878 -0.01267,0.20903 -0.02239,0.33779 -0.0097,0.12876 -0.02198,0.26501 -0.036,0.37565 -0.01402,0.11063 -0.02976,0.19566 -0.04189,0.31326 -0.01213,0.11759 -0.02064,0.26723 -0.02917,0.41719 0,0 1.38e-4,3e-5 1.38e-4,3e-5 z"
       id="path919"
       sodipodi:nodetypes="cccccccccccccccccccccccccccccccccccccccccccccccccccccccccccccccccccccccccccccccccccccccccccccccccccccccccccccccccccccccccccccccccccccccccccccccccccccccccccccccccccccccccccccccccccccccccccccccccccccccccccccccccccccccccccccccccc" />
    <path
       style="opacity:1;fill:#ec1f26;fill-opacity:1;stroke:none;stroke-width:0.078"
       d="m 197.18734,67.36341 c -1.55468,-6.62447 -6.61046,-13.426853 -13.09694,-17.621493 -2.5049,-1.619855 -4.29748,-2.352974 -4.29748,-1.757559 0,0.08347 0.78439,2.48094 1.74309,5.327718 2.82621,8.392204 2.81469,11.832189 -0.044,13.134689 -1.20288,0.54807 -1.42761,0.469295 -2.51374,-0.881145 -1.81661,-2.258675 -3.05819,-6.089695 -3.62821,-11.195219 -0.80024,-7.167651 0.365,-11.152536 4.909,-16.787801 l 2.01588,-2.5 -1.7275,-0.154377 c -3.91102,-0.349505 -10.66789,4.688018 -12.76836,9.519321 -1.53601,3.533001 -1.83015,8.892973 -0.79154,14.424021 1.75027,9.32099 0.53886,12.05292 -4.05923,9.154265 -2.5963,-1.63672 -3.73463,-6.733765 -2.43876,-10.9199 0.42168,-1.362168 0.64907,-2.594288 0.50531,-2.738044 -0.14376,-0.143756 -1.08817,0.183245 -2.0987,0.726669 -2.73559,1.4711 -4.05712,4.289055 -4.71101,10.04548 -0.64272,5.65806 -0.65956,5.65172 -4.13724,-1.557435 -2.62556,-5.442745 -3.255,-8.284446 -3.255,-14.695145 0,-7.524444 2.06649,-12.800153 7.21441,-18.418195 3.04217,-3.319991 8.7438,-8.345114 9.08333,-8.00558 0.10077,0.100761 -0.4942,1.795483 -1.32215,3.766049 -1.73858,4.13796 -2.52357,10.644708 -1.51218,12.534502 0.81779,1.528061 2.51894,2.077746 4.84509,1.565578 2.58328,-0.568782 7.84357,-6.119312 10.38776,-10.960919 3.42515,-6.518072 4.10696,-16.098907 1.50388,-21.132695 -0.42563,-0.8230891 -0.64445,-1.6259553 -0.48626,-1.7841471 1.12744,-1.1274384 8.49432,5.8757801 10.48605,9.9684121 1.18622,2.437461 1.37548,3.425103 1.34144,7 -0.0218,2.289177 -0.37314,6.63714 -0.78075,9.66214 -1.83471,13.616054 -0.48036,17.25 6.42895,17.25 2.40658,0 2.94672,-0.197334 4.44787,-1.625 2.66329,-2.532918 2.84002,-6.510671 0.66088,-14.874327 -0.39398,-1.51213 -0.64662,-2.819046 -0.5614,-2.904259 0.32516,-0.325167 5.09718,5.575735 6.90291,8.535885 4.84182,7.937272 4.54621,15.600147 -0.92075,23.867701 -1.18199,1.7875 -3.13025,4.20689 -4.32945,5.37642 l -2.18038,2.12642 z"
       id="path923"
       transform="matrix(0.26458333,0,0,0.26458333,57.128834,101.6635)" />
  </g>
</svg>
